<svg width="40" height="40" viewBox="0 0 40 40" fill="none" xmlns="http://www.w3.org/2000/svg">
<rect width="40" height="40" rx="6" fill="#E2E4E9"/>
<path d="M19.171 26.882L18.992 25.4148C18.4692 25.2976 17.9779 25.1208 17.5181 24.8842C17.0583 24.6466 16.6438 24.3216 16.2747 23.9094L14.892 24.4648L14 23.1119L15.1406 22.1553C14.9583 21.5839 14.8671 21.0124 14.8671 20.441C14.8671 19.8685 14.9583 19.2965 15.1406 18.7251L14 17.7684L14.892 16.4172L16.2763 16.971C16.6223 16.5587 17.0312 16.2343 17.5032 15.9978C17.9729 15.7602 18.4692 15.5833 18.992 15.4673L19.171 14H20.829L21.008 15.4673C21.5308 15.5833 22.0276 15.7602 22.4985 15.9978C22.9693 16.2343 23.3783 16.5587 23.7253 16.971L25.108 16.4172L26 17.7684L24.8594 18.7251C25.0417 19.2965 25.1329 19.8685 25.1329 20.441C25.1329 21.0124 25.0417 21.5839 24.8594 22.1553L26 23.1119L25.108 24.4648L23.7237 23.9094C23.3567 24.3216 22.9428 24.646 22.4819 24.8826C22.0221 25.1202 21.5303 25.297 21.0064 25.4131L20.829 26.8804H19.171V26.882ZM20 24.0105C20.997 24.0105 21.8414 23.6651 22.5333 22.9743C23.2252 22.2824 23.5712 21.438 23.5712 20.441C23.5712 19.444 23.2252 18.5996 22.5333 17.9077C21.8414 17.2158 20.997 16.8699 20 16.8699C19.003 16.8699 18.1586 17.2158 17.4667 17.9077C16.7748 18.5996 16.4288 19.444 16.4288 20.441C16.4288 21.438 16.7748 22.2818 17.4667 22.9726C18.1586 23.6645 19.003 24.0105 20 24.0105Z" fill="black"/>
</svg>
