<svg width="40" height="40" viewBox="0 0 40 40" fill="none" xmlns="http://www.w3.org/2000/svg">
<rect x="0.5" y="0.5" width="39" height="39" rx="5.5" stroke="#E2E4E9"/>
<path d="M22 24.5812C22 24.1876 21.8058 23.8524 21.4175 23.5755C21.0292 23.3001 20.5567 23.1623 20 23.1623C19.4453 23.1623 18.9728 23.3001 18.5825 23.5755C18.1942 23.851 18 24.1862 18 24.5812C18 24.9747 18.1942 25.3099 18.5825 25.5868C18.9728 25.8623 19.4453 26 20 26C20.5567 26 21.0292 25.8623 21.4175 25.5868C21.8058 25.3113 22 24.9761 22 24.5812ZM22 20C22 19.6065 21.8058 19.2713 21.4175 18.9944C21.0292 18.7189 20.5567 18.5812 20 18.5812C19.4453 18.5812 18.9728 18.7189 18.5825 18.9944C18.1942 19.2699 18 19.6051 18 20C18 20.3935 18.1942 20.7287 18.5825 21.0056C18.9728 21.2811 19.4453 21.4188 20 21.4188C20.5567 21.4188 21.0292 21.2811 21.4175 21.0056C21.8058 20.7301 22 20.3949 22 20ZM22 15.4188C22 15.0253 21.8058 14.6901 21.4175 14.4132C21.0292 14.1377 20.5567 14 20 14C19.4453 14 18.9728 14.1377 18.5825 14.4132C18.1942 14.6887 18 15.0239 18 15.4188C18 15.8124 18.1942 16.1476 18.5825 16.4245C18.9728 16.6999 19.4453 16.8377 20 16.8377C20.5567 16.8377 21.0292 16.6999 21.4175 16.4245C21.8058 16.149 22 15.8138 22 15.4188Z" fill="black"/>
</svg>
